# xmcd
#
# Track frame offsets: 
#        150
#        28942
#        55229
#        69029
#        90489
#        119549
#        156316
#        194140
#        204961
#        231045
#        243622
#        263566
#        293400
#        309166
#        324997
#        339822
#
# Disc length: 4676 seconds
#
# Revision: 1
# Processed by: cddbd v1.5.2PL0 Copyright (c) Steve Scherf et al.
# Submitted via: ExactAudioCopy v1.0b1
#
DISCID=d5124210
DTITLE=Tom Waits - Round Midnight (The Minneapolis Broadcast, 1975)
DYEAR=1975
DGENRE=Blues
TTITLE0=Emotional Weather Report
TTITLE1=Eggs and Sausage (Intro)
TTITLE2=Eggs and Sausage
TTITLE3=Better Off Without a Wife
TTITLE4=Semi Suite
TTITLE5=Spare Parts
TTITLE6=The Ghost of Saturday ~ The Heart of Saturday Night
TTITLE7=New Coat of Paint
TTITLE8=Warm Beer and Cold Women
TTITLE9=Virginia Avenue
TTITLE10=San Diego Seranade
TTITLE11=Putnam County
TTITLE12=Ol' '55
TTITLE13=Mr Siegal (Don Lane Show, 1981)
TTITLE14=Tango Til They're Sore (David Letterman Show, 1986)
TTITLE15=Time (David Letterman Show, 1986)
EXTD=
EXTT0=
EXTT1=
EXTT2=
EXTT3=
EXTT4=
EXTT5=
EXTT6=
EXTT7=
EXTT8=
EXTT9=
EXTT10=
EXTT11=
EXTT12=
EXTT13=
EXTT14=
EXTT15=
PLAYORDER=
